<?xml version="1.0" encoding="utf-8"?>
<svg xmlns="http://www.w3.org/2000/svg" style="margin: auto; background: none; display: block; shape-rendering: auto;" width="280" height="120" preserveAspectRatio="xMidYMid">
<style type="text/css">
  text {
    text-anchor: middle; font-size: 40px; opacity: 0;
  }
</style>
<g style="transform-origin: 140px 60px; transform: scale(1.33333);">
<g transform="translate(140,60)">
  <g transform="translate(0,0)"><g class="path" style="transform: scale(0.91); transform-origin: -86.04px -1.98176px; animation: 1s linear -0.612857s infinite normal forwards running breath-a8bc472a-63f0-4b78-95a3-16488009b1f4;"><path d="M15.18-2.55L15.18 0L2.70 0L2.70-21L5.55-21L5.55-2.55L15.18-2.55" fill="#3e3e3e" stroke="none" stroke-width="none" transform="translate(-94.97998881340027,8.51824099779129)" style="fill: rgb(62, 62, 62);"></path></g><g class="path" style="transform: scale(0.91); transform-origin: -70.68px 0.718242px; animation: 1s linear -0.565714s infinite normal forwards running breath-a8bc472a-63f0-4b78-95a3-16488009b1f4;"><path d="M29.31-7.80L29.31-7.80L29.31-7.80Q29.31-8.97 28.93-10.02L28.93-10.02L28.93-10.02Q28.56-11.07 27.88-11.85L27.88-11.85L27.88-11.85Q27.21-12.63 26.30-13.09L26.30-13.09L26.30-13.09Q25.38-13.56 24.30-13.56L24.30-13.56L24.30-13.56Q21.93-13.56 20.61-12L20.61-12L20.61-12Q19.29-10.44 19.29-7.86L19.29-7.86L19.29-7.86Q19.29-6.69 19.66-5.63L19.66-5.63L19.66-5.63Q20.04-4.56 20.71-3.76L20.71-3.76L20.71-3.76Q21.39-2.97 22.30-2.50L22.30-2.50L22.30-2.50Q23.22-2.04 24.30-2.04L24.30-2.04L24.30-2.04Q25.47-2.04 26.40-2.46L26.40-2.46L26.40-2.46Q27.33-2.88 27.98-3.65L27.98-3.65L27.98-3.65Q28.62-4.41 28.96-5.46L28.96-5.46L28.96-5.46Q29.31-6.51 29.31-7.80zM16.53-7.80L16.53-7.80L16.53-7.80Q16.53-9.69 17.13-11.21L17.13-11.21L17.13-11.21Q17.73-12.72 18.77-13.77L18.77-13.77L18.77-13.77Q19.80-14.82 21.23-15.39L21.23-15.39L21.23-15.39Q22.65-15.96 24.30-15.96L24.30-15.96L24.30-15.96Q25.92-15.96 27.34-15.39L27.34-15.39L27.34-15.39Q28.77-14.82 29.82-13.77L29.82-13.77L29.82-13.77Q30.87-12.72 31.47-11.22L31.47-11.22L31.47-11.22Q32.07-9.72 32.07-7.86L32.07-7.86L32.07-7.86Q32.07-6 31.48-4.48L31.48-4.48L31.48-4.48Q30.90-2.97 29.85-1.89L29.85-1.89L29.85-1.89Q28.80-0.81 27.38-0.22L27.38-0.22L27.38-0.22Q25.95 0.36 24.30 0.36L24.30 0.36L24.30 0.36Q22.62 0.36 21.20-0.24L21.20-0.24L21.20-0.24Q19.77-0.84 18.73-1.92L18.73-1.92L18.73-1.92Q17.70-3 17.11-4.50L17.11-4.50L17.11-4.50Q16.53-6 16.53-7.80" fill="#3e3e3e" stroke="none" stroke-width="none" transform="translate(-94.97998881340027,8.51824099779129)" style="fill: rgb(62, 62, 62);"></path></g><g class="path" style="transform: scale(0.91); transform-origin: -53.385px 4.01824px; animation: 1s linear -0.518571s infinite normal forwards running breath-a8bc472a-63f0-4b78-95a3-16488009b1f4;"><path d="M41.85-15.96L41.85-15.96L41.85-15.96Q43.20-15.96 44.26-15.51L44.26-15.51L44.26-15.51Q45.33-15.06 46.11-14.40L46.11-14.40L46.11-15.60L48.57-15.60L48.57-0.36L48.57-0.36Q48.57 1.59 48.06 2.97L48.06 2.97L48.06 2.97Q47.55 4.35 46.60 5.23L46.60 5.23L46.60 5.23Q45.66 6.12 44.34 6.54L44.34 6.54L44.34 6.54Q43.02 6.96 41.40 6.96L41.40 6.96L41.40 6.96Q39.99 6.96 38.70 6.63L38.70 6.63L38.70 6.63Q37.41 6.30 36.39 5.64L36.39 5.64L37.38 3.30L37.38 3.30Q38.10 3.87 39.06 4.25L39.06 4.25L39.06 4.25Q40.02 4.62 41.40 4.62L41.40 4.62L41.40 4.62Q43.53 4.62 44.74 3.51L44.74 3.51L44.74 3.51Q45.96 2.40 45.96-0.09L45.96-0.09L45.96-2.01L45.96-2.01Q45.36-1.29 44.23-0.65L44.23-0.65L44.23-0.65Q43.11 0 41.55 0L41.55 0L41.55 0Q40.23 0 38.97-0.53L38.97-0.53L38.97-0.53Q37.71-1.05 36.75-2.05L36.75-2.05L36.75-2.05Q35.79-3.06 35.20-4.51L35.20-4.51L35.20-4.51Q34.62-5.97 34.62-7.86L34.62-7.86L34.62-7.86Q34.62-9.60 35.19-11.08L35.19-11.08L35.19-11.08Q35.76-12.57 36.73-13.65L36.73-13.65L36.73-13.65Q37.71-14.73 39.03-15.34L39.03-15.34L39.03-15.34Q40.35-15.96 41.85-15.96zM42.15-2.40L42.15-2.40L42.15-2.40Q43.35-2.40 44.31-2.94L44.31-2.94L44.31-2.94Q45.27-3.48 45.87-4.20L45.87-4.20L45.87-12.36L45.87-12.36Q45.18-12.84 44.28-13.23L44.28-13.23L44.28-13.23Q43.38-13.62 42.12-13.62L42.12-13.62L42.12-13.62Q41.19-13.62 40.33-13.24L40.33-13.24L40.33-13.24Q39.48-12.87 38.82-12.15L38.82-12.15L38.82-12.15Q38.16-11.43 37.77-10.39L37.77-10.39L37.77-10.39Q37.38-9.36 37.38-8.01L37.38-8.01L37.38-8.01Q37.38-6.72 37.77-5.68L37.77-5.68L37.77-5.68Q38.16-4.65 38.82-3.92L38.82-3.92L38.82-3.92Q39.48-3.18 40.33-2.79L40.33-2.79L40.33-2.79Q41.19-2.40 42.15-2.40" fill="#3e3e3e" stroke="none" stroke-width="none" transform="translate(-94.97998881340027,8.51824099779129)" style="fill: rgb(62, 62, 62);"></path></g><g class="path" style="transform: scale(0.91); transform-origin: -35.835px 4.01824px; animation: 1s linear -0.471429s infinite normal forwards running breath-a8bc472a-63f0-4b78-95a3-16488009b1f4;"><path d="M59.40-15.96L59.40-15.96L59.40-15.96Q60.75-15.96 61.81-15.51L61.81-15.51L61.81-15.51Q62.88-15.06 63.66-14.40L63.66-14.40L63.66-15.60L66.12-15.60L66.12-0.36L66.12-0.36Q66.12 1.59 65.61 2.97L65.61 2.97L65.61 2.97Q65.10 4.35 64.15 5.23L64.15 5.23L64.15 5.23Q63.21 6.12 61.89 6.54L61.89 6.54L61.89 6.54Q60.57 6.96 58.95 6.96L58.95 6.96L58.95 6.96Q57.54 6.96 56.25 6.63L56.25 6.63L56.25 6.63Q54.96 6.30 53.94 5.64L53.94 5.64L54.93 3.30L54.93 3.30Q55.65 3.87 56.61 4.25L56.61 4.25L56.61 4.25Q57.57 4.62 58.95 4.62L58.95 4.62L58.95 4.62Q61.08 4.62 62.29 3.51L62.29 3.51L62.29 3.51Q63.51 2.40 63.51-0.09L63.51-0.09L63.51-2.01L63.51-2.01Q62.91-1.29 61.78-0.65L61.78-0.65L61.78-0.65Q60.66 0 59.10 0L59.10 0L59.10 0Q57.78 0 56.52-0.53L56.52-0.53L56.52-0.53Q55.26-1.05 54.30-2.05L54.30-2.05L54.30-2.05Q53.34-3.06 52.75-4.51L52.75-4.51L52.75-4.51Q52.17-5.97 52.17-7.86L52.17-7.86L52.17-7.86Q52.17-9.60 52.74-11.08L52.74-11.08L52.74-11.08Q53.31-12.57 54.28-13.65L54.28-13.65L54.28-13.65Q55.26-14.73 56.58-15.34L56.58-15.34L56.58-15.34Q57.90-15.96 59.40-15.96zM59.70-2.40L59.70-2.40L59.70-2.40Q60.90-2.40 61.86-2.94L61.86-2.94L61.86-2.94Q62.82-3.48 63.42-4.20L63.42-4.20L63.42-12.36L63.42-12.36Q62.73-12.84 61.83-13.23L61.83-13.23L61.83-13.23Q60.93-13.62 59.67-13.62L59.67-13.62L59.67-13.62Q58.74-13.62 57.88-13.24L57.88-13.24L57.88-13.24Q57.03-12.87 56.37-12.15L56.37-12.15L56.37-12.15Q55.71-11.43 55.32-10.39L55.32-10.39L55.32-10.39Q54.93-9.36 54.93-8.01L54.93-8.01L54.93-8.01Q54.93-6.72 55.32-5.68L55.32-5.68L55.32-5.68Q55.71-4.65 56.37-3.92L56.37-3.92L56.37-3.92Q57.03-3.18 57.88-2.79L57.88-2.79L57.88-2.79Q58.74-2.40 59.70-2.40" fill="#3e3e3e" stroke="none" stroke-width="none" transform="translate(-94.97998881340027,8.51824099779129)" style="fill: rgb(62, 62, 62);"></path></g><g class="path" style="transform: scale(0.91); transform-origin: -22.86px 0.718242px; animation: 1s linear -0.424286s infinite normal forwards running breath-a8bc472a-63f0-4b78-95a3-16488009b1f4;"><path d="M73.47-15.60L73.47 0L70.77 0L70.77-15.60L73.47-15.60" fill="#3e3e3e" stroke="none" stroke-width="none" transform="translate(-94.97998881340027,8.51824099779129)" style="fill: rgb(62, 62, 62);"></path></g><g class="path" style="transform: scale(0.91); transform-origin: -22.86px -11.6418px; animation: 1s linear -0.377143s infinite normal forwards running breath-a8bc472a-63f0-4b78-95a3-16488009b1f4;"><path d="M72.12-18.27L72.12-18.27L72.12-18.27Q71.34-18.27 70.78-18.82L70.78-18.82L70.78-18.82Q70.23-19.38 70.23-20.16L70.23-20.16L70.23-20.16Q70.23-21.03 70.74-21.54L70.74-21.54L70.74-21.54Q71.25-22.05 72.12-22.05L72.12-22.05L72.12-22.05Q72.90-22.05 73.45-21.49L73.45-21.49L73.45-21.49Q74.01-20.94 74.01-20.16L74.01-20.16L74.01-20.16Q74.01-19.29 73.50-18.78L73.50-18.78L73.50-18.78Q72.99-18.27 72.12-18.27" fill="#3e3e3e" stroke="none" stroke-width="none" transform="translate(-94.97998881340027,8.51824099779129)" style="fill: rgb(62, 62, 62);"></path></g><g class="path" style="transform: scale(0.91); transform-origin: -10.155px 0.538242px; animation: 1s linear -0.33s infinite normal forwards running breath-a8bc472a-63f0-4b78-95a3-16488009b1f4;"><path d="M80.88-15.60L80.88-12.99L80.88-12.99Q81.72-14.25 83.02-15.10L83.02-15.10L83.02-15.10Q84.33-15.96 86.13-15.96L86.13-15.96L86.13-15.96Q88.77-15.96 90.07-14.37L90.07-14.37L90.07-14.37Q91.38-12.78 91.38-10.17L91.38-10.17L91.38 0L88.68 0L88.68-9.87L88.68-9.87Q88.68-11.58 87.90-12.58L87.90-12.58L87.90-12.58Q87.12-13.59 85.68-13.59L85.68-13.59L85.68-13.59Q84.99-13.59 84.33-13.33L84.33-13.33L84.33-13.33Q83.67-13.08 83.05-12.63L83.05-12.63L83.05-12.63Q82.44-12.18 81.91-11.58L81.91-11.58L81.91-11.58Q81.39-10.98 80.97-10.32L80.97-10.32L80.97 0L78.27 0L78.27-15.60L80.88-15.60" fill="#3e3e3e" stroke="none" stroke-width="none" transform="translate(-94.97998881340027,8.51824099779129)" style="fill: rgb(62, 62, 62);"></path></g><g class="path" style="transform: scale(0.91); transform-origin: 6.97501px 4.01824px; animation: 1s linear -0.282857s infinite normal forwards running breath-a8bc472a-63f0-4b78-95a3-16488009b1f4;"><path d="M102.21-15.96L102.21-15.96L102.21-15.96Q103.56-15.96 104.63-15.51L104.63-15.51L104.63-15.51Q105.69-15.06 106.47-14.40L106.47-14.40L106.47-15.60L108.93-15.60L108.93-0.36L108.93-0.36Q108.93 1.59 108.42 2.97L108.42 2.97L108.42 2.97Q107.91 4.35 106.96 5.23L106.96 5.23L106.96 5.23Q106.02 6.12 104.70 6.54L104.70 6.54L104.70 6.54Q103.38 6.96 101.76 6.96L101.76 6.96L101.76 6.96Q100.35 6.96 99.06 6.63L99.06 6.63L99.06 6.63Q97.77 6.30 96.75 5.64L96.75 5.64L97.74 3.30L97.74 3.30Q98.46 3.87 99.42 4.25L99.42 4.25L99.42 4.25Q100.38 4.62 101.76 4.62L101.76 4.62L101.76 4.62Q103.89 4.62 105.10 3.51L105.10 3.51L105.10 3.51Q106.32 2.40 106.32-0.09L106.32-0.09L106.32-2.01L106.32-2.01Q105.72-1.29 104.59-0.65L104.59-0.65L104.59-0.65Q103.47 0 101.91 0L101.91 0L101.91 0Q100.59 0 99.33-0.53L99.33-0.53L99.33-0.53Q98.07-1.05 97.11-2.05L97.11-2.05L97.11-2.05Q96.15-3.06 95.56-4.51L95.56-4.51L95.56-4.51Q94.98-5.97 94.98-7.86L94.98-7.86L94.98-7.86Q94.98-9.60 95.55-11.08L95.55-11.08L95.55-11.08Q96.12-12.57 97.09-13.65L97.09-13.65L97.09-13.65Q98.07-14.73 99.39-15.34L99.39-15.34L99.39-15.34Q100.71-15.96 102.21-15.96zM102.51-2.40L102.51-2.40L102.51-2.40Q103.71-2.40 104.67-2.94L104.67-2.94L104.67-2.94Q105.63-3.48 106.23-4.20L106.23-4.20L106.23-12.36L106.23-12.36Q105.54-12.84 104.64-13.23L104.64-13.23L104.64-13.23Q103.74-13.62 102.48-13.62L102.48-13.62L102.48-13.62Q101.55-13.62 100.69-13.24L100.69-13.24L100.69-13.24Q99.84-12.87 99.18-12.15L99.18-12.15L99.18-12.15Q98.52-11.43 98.13-10.39L98.13-10.39L98.13-10.39Q97.74-9.36 97.74-8.01L97.74-8.01L97.74-8.01Q97.74-6.72 98.13-5.68L98.13-5.68L98.13-5.68Q98.52-4.65 99.18-3.92L99.18-3.92L99.18-3.92Q99.84-3.18 100.69-2.79L100.69-2.79L100.69-2.79Q101.55-2.40 102.51-2.40" fill="#3e3e3e" stroke="none" stroke-width="none" transform="translate(-94.97998881340027,8.51824099779129)" style="fill: rgb(62, 62, 62);"></path></g><g class="path" style="transform: scale(0.91); transform-origin: 34.17px 0.718242px; animation: 1s linear -0.235714s infinite normal forwards running breath-a8bc472a-63f0-4b78-95a3-16488009b1f4;"><path d="M134.16-7.80L134.16-7.80L134.16-7.80Q134.16-8.97 133.78-10.02L133.78-10.02L133.78-10.02Q133.41-11.07 132.73-11.85L132.73-11.85L132.73-11.85Q132.06-12.63 131.14-13.09L131.14-13.09L131.14-13.09Q130.23-13.56 129.15-13.56L129.15-13.56L129.15-13.56Q126.78-13.56 125.46-12L125.46-12L125.46-12Q124.14-10.44 124.14-7.86L124.14-7.86L124.14-7.86Q124.14-6.69 124.51-5.63L124.51-5.63L124.51-5.63Q124.89-4.56 125.56-3.76L125.56-3.76L125.56-3.76Q126.24-2.97 127.15-2.50L127.15-2.50L127.15-2.50Q128.07-2.04 129.15-2.04L129.15-2.04L129.15-2.04Q130.32-2.04 131.25-2.46L131.25-2.46L131.25-2.46Q132.18-2.88 132.82-3.65L132.82-3.65L132.82-3.65Q133.47-4.41 133.81-5.46L133.81-5.46L133.81-5.46Q134.16-6.51 134.16-7.80zM121.38-7.80L121.38-7.80L121.38-7.80Q121.38-9.69 121.98-11.21L121.98-11.21L121.98-11.21Q122.58-12.72 123.61-13.77L123.61-13.77L123.61-13.77Q124.65-14.82 126.07-15.39L126.07-15.39L126.07-15.39Q127.50-15.96 129.15-15.96L129.15-15.96L129.15-15.96Q130.77-15.96 132.19-15.39L132.19-15.39L132.19-15.39Q133.62-14.82 134.67-13.77L134.67-13.77L134.67-13.77Q135.72-12.72 136.32-11.22L136.32-11.22L136.32-11.22Q136.92-9.72 136.92-7.86L136.92-7.86L136.92-7.86Q136.92-6 136.33-4.48L136.33-4.48L136.33-4.48Q135.75-2.97 134.70-1.89L134.70-1.89L134.70-1.89Q133.65-0.81 132.22-0.22L132.22-0.22L132.22-0.22Q130.80 0.36 129.15 0.36L129.15 0.36L129.15 0.36Q127.47 0.36 126.04-0.24L126.04-0.24L126.04-0.24Q124.62-0.84 123.58-1.92L123.58-1.92L123.58-1.92Q122.55-3 121.96-4.50L121.96-4.50L121.96-4.50Q121.38-6 121.38-7.80" fill="#3e3e3e" stroke="none" stroke-width="none" transform="translate(-94.97998881340027,8.51824099779129)" style="fill: rgb(62, 62, 62);"></path></g><g class="path" style="transform: scale(0.91); transform-origin: 52.725px 0.898242px; animation: 1s linear -0.188571s infinite normal forwards running breath-a8bc472a-63f0-4b78-95a3-16488009b1f4;"><path d="M155.04-1.95L154.47 0.15L154.47 0.15Q153.03 0.15 152.19-0.42L152.19-0.42L152.19-0.42Q151.35-0.99 151.02-2.07L151.02-2.07L151.02-2.07Q149.97-0.99 148.61-0.32L148.61-0.32L148.61-0.32Q147.24 0.36 145.62 0.36L145.62 0.36L145.62 0.36Q144.60 0.36 143.66 0.04L143.66 0.04L143.66 0.04Q142.71-0.27 141.97-0.96L141.97-0.96L141.97-0.96Q141.24-1.65 140.81-2.76L140.81-2.76L140.81-2.76Q140.37-3.87 140.37-5.46L140.37-5.46L140.37-15.60L143.07-15.60L143.07-5.82L143.07-5.82Q143.07-3.99 143.84-3.01L143.84-3.01L143.84-3.01Q144.60-2.04 146.13-2.04L146.13-2.04L146.13-2.04Q147.39-2.04 148.53-2.53L148.53-2.53L148.53-2.53Q149.67-3.03 150.57-3.87L150.57-3.87L150.57-15.60L153.27-15.60L153.27-4.05L153.27-4.05Q153.27-3.39 153.42-2.98L153.42-2.98L153.42-2.98Q153.57-2.58 153.81-2.35L153.81-2.35L153.81-2.35Q154.05-2.13 154.38-2.04L154.38-2.04L154.38-2.04Q154.71-1.95 155.04-1.95L155.04-1.95" fill="#3e3e3e" stroke="none" stroke-width="none" transform="translate(-94.97998881340027,8.51824099779129)" style="fill: rgb(62, 62, 62);"></path></g><g class="path" style="transform: scale(0.91); transform-origin: 67.215px -1.27676px; animation: 1s linear -0.141429s infinite normal forwards running breath-a8bc472a-63f0-4b78-95a3-16488009b1f4;"><path d="M159.30-15.03L159.87-19.95L161.94-19.95L161.94-15.03L166.26-15.03L166.26-12.69L161.94-12.69L161.94-5.16L161.94-5.16Q161.94-4.29 162.14-3.69L162.14-3.69L162.14-3.69Q162.33-3.09 162.66-2.73L162.66-2.73L162.66-2.73Q162.99-2.37 163.46-2.21L163.46-2.21L163.46-2.21Q163.92-2.04 164.43-2.04L164.43-2.04L164.43-2.04Q165.18-2.04 165.84-2.28L165.84-2.28L165.84-2.28Q166.50-2.52 167.10-2.85L167.10-2.85L167.85-0.69L167.85-0.69Q167.25-0.33 166.23 0.01L166.23 0.01L166.23 0.01Q165.21 0.36 164.10 0.36L164.10 0.36L164.10 0.36Q161.85 0.36 160.55-1.11L160.55-1.11L160.55-1.11Q159.24-2.58 159.24-5.37L159.24-5.37L159.24-12.69L156.54-12.69L156.54-15.03L159.30-15.03" fill="#3e3e3e" stroke="none" stroke-width="none" transform="translate(-94.97998881340027,8.51824099779129)" style="fill: rgb(62, 62, 62);"></path></g><g class="path" style="transform: scale(0.91); transform-origin: 77.67px 6.86824px; animation: 1s linear -0.0942857s infinite normal forwards running breath-a8bc472a-63f0-4b78-95a3-16488009b1f4;"><path d="M170.64-1.65L170.64-1.65L170.64-1.65Q170.64-2.58 171.16-3.12L171.16-3.12L171.16-3.12Q171.69-3.66 172.65-3.66L172.65-3.66L172.65-3.66Q173.43-3.66 174.05-3.06L174.05-3.06L174.05-3.06Q174.66-2.46 174.66-1.65L174.66-1.65L174.66-1.65Q174.66-0.75 174.09-0.20L174.09-0.20L174.09-0.20Q173.52 0.36 172.65 0.36L172.65 0.36L172.65 0.36Q171.84 0.36 171.24-0.24L171.24-0.24L171.24-0.24Q170.64-0.84 170.64-1.65" fill="#3e3e3e" stroke="none" stroke-width="none" transform="translate(-94.97998881340027,8.51824099779129)" style="fill: rgb(62, 62, 62);"></path></g><g class="path" style="transform: scale(0.91); transform-origin: 86.67px 6.86824px; animation: 1s linear -0.0471429s infinite normal forwards running breath-a8bc472a-63f0-4b78-95a3-16488009b1f4;"><path d="M179.64-1.65L179.64-1.65L179.64-1.65Q179.64-2.58 180.16-3.12L180.16-3.12L180.16-3.12Q180.69-3.66 181.65-3.66L181.65-3.66L181.65-3.66Q182.43-3.66 183.05-3.06L183.05-3.06L183.05-3.06Q183.66-2.46 183.66-1.65L183.66-1.65L183.66-1.65Q183.66-0.75 183.09-0.20L183.09-0.20L183.09-0.20Q182.52 0.36 181.65 0.36L181.65 0.36L181.65 0.36Q180.84 0.36 180.24-0.24L180.24-0.24L180.24-0.24Q179.64-0.84 179.64-1.65" fill="#3e3e3e" stroke="none" stroke-width="none" transform="translate(-94.97998881340027,8.51824099779129)" style="fill: rgb(62, 62, 62);"></path></g><g class="path" style="transform: scale(0.91); transform-origin: 95.67px 6.86824px; animation: 1s linear 0s infinite normal forwards running breath-a8bc472a-63f0-4b78-95a3-16488009b1f4;"><path d="M188.64-1.65L188.64-1.65L188.64-1.65Q188.64-2.58 189.16-3.12L189.16-3.12L189.16-3.12Q189.69-3.66 190.65-3.66L190.65-3.66L190.65-3.66Q191.43-3.66 192.05-3.06L192.05-3.06L192.05-3.06Q192.66-2.46 192.66-1.65L192.66-1.65L192.66-1.65Q192.66-0.75 192.09-0.20L192.09-0.20L192.09-0.20Q191.52 0.36 190.65 0.36L190.65 0.36L190.65 0.36Q189.84 0.36 189.24-0.24L189.24-0.24L189.24-0.24Q188.64-0.84 188.64-1.65" fill="#3e3e3e" stroke="none" stroke-width="none" transform="translate(-94.97998881340027,8.51824099779129)" style="fill: rgb(62, 62, 62);"></path></g></g>
</g>
</g>
<style id="breath-a8bc472a-63f0-4b78-95a3-16488009b1f4" data-anikit="">@keyframes breath-a8bc472a-63f0-4b78-95a3-16488009b1f4
{
  0% {
    animation-timing-function: cubic-bezier(0.9647,0.2413,-0.0705,0.7911);
    transform: scale(0.9099999999999999);
  }
  51% {
    animation-timing-function: cubic-bezier(0.9226,0.2631,-0.0308,0.7628);
    transform: scale(1.02994);
  }
  100% {
    transform: scale(0.9099999999999999);
  }
}</style></svg>