<?xml version="1.0" encoding="utf-8"?>
<svg xmlns="http://www.w3.org/2000/svg" style="margin: auto; background: none; display: block; shape-rendering: auto;" width="280" height="280" preserveAspectRatio="xMidYMid">
<style type="text/css">
  text {
    text-anchor: middle; font-size: 38px; opacity: 0;
  }
</style>
<g style="transform-origin: 140px 140px; transform: scale(0.95);">
<g transform="translate(140,140)">
  <g transform="translate(0,0)"><g class="path" style="opacity: 1; transform-origin: -36.72px -2.15921px; animation: 1.92308s linear -0.951923s infinite normal forwards running blink-5f82691a-da5f-4a23-b7c7-f0b09c0d6827;"><path d="M1.20-2.36L3.12-5.56L3.12-5.56Q4.56-4.36 6.36-3.60L6.36-3.60L6.36-3.60Q8.16-2.84 10.56-2.84L10.56-2.84L10.56-2.84Q13.44-2.84 15.12-4.04L15.12-4.04L15.12-4.04Q16.80-5.24 16.80-7.28L16.80-7.28L16.80-7.28Q16.80-8.12 16.56-8.84L16.56-8.84L16.56-8.84Q16.32-9.56 15.62-10.22L15.62-10.22L15.62-10.22Q14.92-10.88 13.66-11.54L13.66-11.54L13.66-11.54Q12.40-12.20 10.40-12.96L10.40-12.96L10.40-12.96Q8.24-13.80 6.74-14.62L6.74-14.62L6.74-14.62Q5.24-15.44 4.32-16.42L4.32-16.42L4.32-16.42Q3.40-17.40 3-18.58L3-18.58L3-18.58Q2.60-19.76 2.60-21.28L2.60-21.28L2.60-21.28Q2.60-22.76 3.22-24.08L3.22-24.08L3.22-24.08Q3.84-25.40 5.06-26.38L5.06-26.38L5.06-26.38Q6.28-27.36 8.06-27.92L8.06-27.92L8.06-27.92Q9.84-28.48 12.12-28.48L12.12-28.48L12.12-28.48Q14.60-28.48 16.56-27.98L16.56-27.98L16.56-27.98Q18.52-27.48 20.44-26.56L20.44-26.56L19.04-23.32L19.04-23.32Q17.68-24.12 15.86-24.66L15.86-24.66L15.86-24.66Q14.04-25.20 12.04-25.20L12.04-25.20L12.04-25.20Q9.40-25.20 7.88-24.18L7.88-24.18L7.88-24.18Q6.36-23.16 6.36-21.48L6.36-21.48L6.36-21.48Q6.36-20.68 6.58-20.06L6.58-20.06L6.58-20.06Q6.80-19.44 7.46-18.86L7.46-18.86L7.46-18.86Q8.12-18.28 9.30-17.68L9.30-17.68L9.30-17.68Q10.48-17.08 12.44-16.36L12.44-16.36L12.44-16.36Q14.76-15.48 16.36-14.56L16.36-14.56L16.36-14.56Q17.96-13.64 18.92-12.60L18.92-12.60L18.92-12.60Q19.88-11.56 20.30-10.36L20.30-10.36L20.30-10.36Q20.72-9.16 20.72-7.72L20.72-7.72L20.72-7.72Q20.72-5.76 19.96-4.24L19.96-4.24L19.96-4.24Q19.20-2.72 17.86-1.66L17.86-1.66L17.86-1.66Q16.52-0.60 14.64-0.06L14.64-0.06L14.64-0.06Q12.76 0.48 10.56 0.48L10.56 0.48L10.56 0.48Q7.64 0.48 5.24-0.30L5.24-0.30L5.24-0.30Q2.84-1.08 1.20-2.36L1.20-2.36" fill="#0e0e0e" stroke="none" stroke-width="none" transform="translate(-47.680006980895996,11.840793600082398)" style="fill: rgb(14, 14, 14);"></path></g><g class="path" style="opacity: 1; transform-origin: -15.6px 5.84079px; animation: 1.92308s linear -0.634615s infinite normal forwards running blink-5f82691a-da5f-4a23-b7c7-f0b09c0d6827;"><path d="M25.44 9.28L25.44 9.28L25.44 9.28Q24.24 9.28 23.34 9.04L23.34 9.04L23.34 9.04Q22.44 8.80 21.92 8.48L21.92 8.48L22.72 5.48L22.72 5.48Q23.20 5.76 23.90 5.96L23.90 5.96L23.90 5.96Q24.60 6.16 25.52 6.16L25.52 6.16L25.52 6.16Q26.36 6.16 27.10 5.92L27.10 5.92L27.10 5.92Q27.84 5.68 28.52 5.08L28.52 5.08L28.52 5.08Q29.20 4.48 29.82 3.44L29.82 3.44L29.82 3.44Q30.44 2.40 31.04 0.84L31.04 0.84L31.96-1.56L30.04-1.56L21.92-19.84L25.12-21.28L32.88-3.96L38.92-21.12L42.24-19.84L34.60 1.04L34.60 1.04Q33.72 3.44 32.74 5.02L32.74 5.02L32.74 5.02Q31.76 6.60 30.64 7.56L30.64 7.56L30.64 7.56Q29.52 8.52 28.22 8.90L28.22 8.90L28.22 8.90Q26.92 9.28 25.44 9.28" fill="#0e0e0e" stroke="none" stroke-width="none" transform="translate(-47.680006980895996,11.840793600082398)" style="fill: rgb(89, 89, 89);"></path></g><g class="path" style="opacity: 1; transform-origin: 10.28px -2.15921px; animation: 1.92308s linear -0.317308s infinite normal forwards running blink-5f82691a-da5f-4a23-b7c7-f0b09c0d6827;"><path d="M44.64-14.04L44.64-14.04L44.64-14.04Q44.64-17.12 45.52-19.76L45.52-19.76L45.52-19.76Q46.40-22.40 48.08-24.34L48.08-24.34L48.08-24.34Q49.76-26.28 52.16-27.38L52.16-27.38L52.16-27.38Q54.56-28.48 57.64-28.48L57.64-28.48L57.64-28.48Q60.68-28.48 63.10-27.34L63.10-27.34L63.10-27.34Q65.52-26.20 67.20-24.24L67.20-24.24L67.20-24.24Q68.88-22.28 69.78-19.66L69.78-19.66L69.78-19.66Q70.68-17.04 70.68-14.04L70.68-14.04L70.68-14.04Q70.68-10.92 69.80-8.62L69.80-8.62L69.80-8.62Q68.92-6.32 67.72-4.64L67.72-4.64L71.28-2.68L69.56 0.48L65.68-2.40L65.68-2.40Q64.16-1.16 62.18-0.34L62.18-0.34L62.18-0.34Q60.20 0.48 57.64 0.48L57.64 0.48L57.64 0.48Q54.56 0.48 52.16-0.66L52.16-0.66L52.16-0.66Q49.76-1.80 48.08-3.78L48.08-3.78L48.08-3.78Q46.40-5.76 45.52-8.40L45.52-8.40L45.52-8.40Q44.64-11.04 44.64-14.04zM62.84-4.20L59.80-6.12L61.40-9.04L65-6.44L65-6.44Q65.96-8 66.38-9.84L66.38-9.84L66.38-9.84Q66.80-11.68 66.80-14.04L66.80-14.04L66.80-14.04Q66.80-16.20 66.18-18.20L66.18-18.20L66.18-18.20Q65.56-20.20 64.38-21.76L64.38-21.76L64.38-21.76Q63.20-23.32 61.50-24.26L61.50-24.26L61.50-24.26Q59.80-25.20 57.64-25.20L57.64-25.20L57.64-25.20Q55.48-25.20 53.78-24.36L53.78-24.36L53.78-24.36Q52.08-23.52 50.92-22.02L50.92-22.02L50.92-22.02Q49.76-20.52 49.14-18.48L49.14-18.48L49.14-18.48Q48.52-16.44 48.52-14.04L48.52-14.04L48.52-14.04Q48.52-11.88 49.12-9.84L49.12-9.84L49.12-9.84Q49.72-7.80 50.88-6.24L50.88-6.24L50.88-6.24Q52.04-4.68 53.72-3.74L53.72-3.74L53.72-3.74Q55.40-2.80 57.56-2.80L57.56-2.80L57.56-2.80Q59.24-2.80 60.56-3.20L60.56-3.20L60.56-3.20Q61.88-3.60 62.84-4.20L62.84-4.20" fill="#0e0e0e" stroke="none" stroke-width="none" transform="translate(-47.680006980895996,11.840793600082398)" style="fill: rgb(137, 137, 137);"></path></g><g class="path" style="opacity: 1; transform-origin: 38.94px -2.07921px; animation: 1.92308s linear 0s infinite normal forwards running blink-5f82691a-da5f-4a23-b7c7-f0b09c0d6827;"><path d="M96.56-1.20L93 0.48L89.52-7.12L89.52-7.12Q88.20-9.96 86.20-11.16L86.20-11.16L86.20-11.16Q84.20-12.36 81.08-12.36L81.08-12.36L80.48-12.36L80.48 0L76.68 0L76.68-27.92L76.68-27.92Q78.84-28.12 80.74-28.22L80.74-28.22L80.74-28.22Q82.64-28.32 84.88-28.32L84.88-28.32L84.88-28.32Q87.44-28.32 89.36-27.78L89.36-27.78L89.36-27.78Q91.28-27.24 92.56-26.24L92.56-26.24L92.56-26.24Q93.84-25.24 94.50-23.88L94.50-23.88L94.50-23.88Q95.16-22.52 95.16-20.88L95.16-20.88L95.16-20.88Q95.16-17.96 93.42-16.18L93.42-16.18L93.42-16.18Q91.68-14.40 88.40-13.52L88.40-13.52L88.40-13.52Q89.20-13.16 89.88-12.70L89.88-12.70L89.88-12.70Q90.56-12.24 91.16-11.58L91.16-11.58L91.16-11.58Q91.76-10.92 92.34-10L92.34-10L92.34-10Q92.92-9.08 93.52-7.76L93.52-7.76L96.56-1.20zM84.88-25.12L84.88-25.12L84.88-25.12Q83.52-25.12 82.44-25.08L82.44-25.08L82.44-25.08Q81.36-25.04 80.48-24.96L80.48-24.96L80.48-15.56L84.88-15.56L84.88-15.56Q87.76-15.56 89.56-16.84L89.56-16.84L89.56-16.84Q91.36-18.12 91.36-20.52L91.36-20.52L91.36-20.52Q91.36-22.52 89.68-23.82L89.68-23.82L89.68-23.82Q88-25.12 84.88-25.12" fill="#0e0e0e" stroke="none" stroke-width="none" transform="translate(-47.680006980895996,11.840793600082398)" style="fill: rgb(201, 201, 201);"></path></g></g>
</g>
</g>
<style id="blink-5f82691a-da5f-4a23-b7c7-f0b09c0d6827" data-anikit="">@keyframes blink-5f82691a-da5f-4a23-b7c7-f0b09c0d6827 {
  0% { opacity: 1; }
  49.75% { opacity: 1; }
  50.25% { opacity: 0; }
  99.5% { opacity: 0; }
  100% { opacity: 1; }
}</style></svg>