<?xml version="1.0" encoding="utf-8"?>
<svg xmlns="http://www.w3.org/2000/svg" style="margin: auto; background: none; display: block; shape-rendering: auto;" width="280" height="280" preserveAspectRatio="xMidYMid">
<style type="text/css">
  text {
    text-anchor: middle; font-size: 40px; opacity: 0;
  }
</style>
<g style="transform-origin: 140px 140px; transform: scale(1.33333);">
<g transform="translate(140,140)">
  <g transform="translate(0,0)"><g class="path" style="opacity: 1; transform-origin: -26.715px -1.6536px; animation: 1.66667s linear -0.825s infinite normal forwards running blink-85f4f835-5572-42f0-a664-fb94a61b4890;"><path d="M19.47 0L19.47-17.37L13.86-4.74L11.04-4.74L5.40-17.37L5.40 0L2.70 0L2.70-21L6.69-21L12.51-7.71L18.24-21L22.32-21L22.32 0L19.47 0" fill="#353535" stroke="none" stroke-width="none" transform="translate(-39.22502279281616,8.846397542953492)" style="fill: rgb(53, 53, 53);"></path></g><g class="path" style="opacity: 1; transform-origin: -6.43502px 4.3464px; animation: 1.66667s linear -0.55s infinite normal forwards running blink-85f4f835-5572-42f0-a664-fb94a61b4890;"><path d="M27.81 6.96L27.81 6.96L27.81 6.96Q26.91 6.96 26.23 6.78L26.23 6.78L26.23 6.78Q25.56 6.60 25.17 6.36L25.17 6.36L25.77 4.11L25.77 4.11Q26.13 4.32 26.66 4.47L26.66 4.47L26.66 4.47Q27.18 4.62 27.87 4.62L27.87 4.62L27.87 4.62Q28.50 4.62 29.05 4.44L29.05 4.44L29.05 4.44Q29.61 4.26 30.12 3.81L30.12 3.81L30.12 3.81Q30.63 3.36 31.09 2.58L31.09 2.58L31.09 2.58Q31.56 1.80 32.01 0.63L32.01 0.63L32.70-1.17L31.26-1.17L25.17-14.88L27.57-15.96L33.39-2.97L37.92-15.84L40.41-14.88L34.68 0.78L34.68 0.78Q34.02 2.58 33.28 3.76L33.28 3.76L33.28 3.76Q32.55 4.95 31.71 5.67L31.71 5.67L31.71 5.67Q30.87 6.39 29.89 6.67L29.89 6.67L29.89 6.67Q28.92 6.96 27.81 6.96" fill="#353535" stroke="none" stroke-width="none" transform="translate(-39.22502279281616,8.846397542953492)" style="fill: rgb(102, 102, 102);"></path></g><g class="path" style="opacity: 1; transform-origin: 12.975px -1.6536px; animation: 1.66667s linear -0.275s infinite normal forwards running blink-85f4f835-5572-42f0-a664-fb94a61b4890;"><path d="M42.21-10.53L42.21-10.53L42.21-10.53Q42.21-12.84 42.87-14.82L42.87-14.82L42.87-14.82Q43.53-16.80 44.79-18.25L44.79-18.25L44.79-18.25Q46.05-19.71 47.85-20.54L47.85-20.54L47.85-20.54Q49.65-21.36 51.96-21.36L51.96-21.36L51.96-21.36Q54.24-21.36 56.05-20.50L56.05-20.50L56.05-20.50Q57.87-19.65 59.13-18.18L59.13-18.18L59.13-18.18Q60.39-16.71 61.06-14.74L61.06-14.74L61.06-14.74Q61.74-12.78 61.74-10.53L61.74-10.53L61.74-10.53Q61.74-8.19 61.08-6.46L61.08-6.46L61.08-6.46Q60.42-4.74 59.52-3.48L59.52-3.48L62.19-2.01L60.90 0.36L57.99-1.80L57.99-1.80Q56.85-0.87 55.37-0.26L55.37-0.26L55.37-0.26Q53.88 0.36 51.96 0.36L51.96 0.36L51.96 0.36Q49.65 0.36 47.85-0.49L47.85-0.49L47.85-0.49Q46.05-1.35 44.79-2.83L44.79-2.83L44.79-2.83Q43.53-4.32 42.87-6.30L42.87-6.30L42.87-6.30Q42.21-8.28 42.21-10.53zM55.86-3.15L53.58-4.59L54.78-6.78L57.48-4.83L57.48-4.83Q58.20-6 58.52-7.38L58.52-7.38L58.52-7.38Q58.83-8.76 58.83-10.53L58.83-10.53L58.83-10.53Q58.83-12.15 58.36-13.65L58.36-13.65L58.36-13.65Q57.90-15.15 57.02-16.32L57.02-16.32L57.02-16.32Q56.13-17.49 54.86-18.20L54.86-18.20L54.86-18.20Q53.58-18.90 51.96-18.90L51.96-18.90L51.96-18.90Q50.34-18.90 49.06-18.27L49.06-18.27L49.06-18.27Q47.79-17.64 46.92-16.52L46.92-16.52L46.92-16.52Q46.05-15.39 45.59-13.86L45.59-13.86L45.59-13.86Q45.12-12.33 45.12-10.53L45.12-10.53L45.12-10.53Q45.12-8.91 45.57-7.38L45.57-7.38L45.57-7.38Q46.02-5.85 46.89-4.68L46.89-4.68L46.89-4.68Q47.76-3.51 49.02-2.80L49.02-2.80L49.02-2.80Q50.28-2.10 51.90-2.10L51.90-2.10L51.90-2.10Q53.16-2.10 54.15-2.40L54.15-2.40L54.15-2.40Q55.14-2.70 55.86-3.15L55.86-3.15" fill="#353535" stroke="none" stroke-width="none" transform="translate(-39.22502279281616,8.846397542953492)" style="fill: rgb(155, 155, 155);"></path></g><g class="path" style="opacity: 1; transform-origin: 34.47px -1.5936px; animation: 1.66667s linear 0s infinite normal forwards running blink-85f4f835-5572-42f0-a664-fb94a61b4890;"><path d="M81.15-0.90L78.48 0.36L75.87-5.34L75.87-5.34Q74.88-7.47 73.38-8.37L73.38-8.37L73.38-8.37Q71.88-9.27 69.54-9.27L69.54-9.27L69.09-9.27L69.09 0L66.24 0L66.24-20.94L66.24-20.94Q67.86-21.09 69.28-21.16L69.28-21.16L69.28-21.16Q70.71-21.24 72.39-21.24L72.39-21.24L72.39-21.24Q74.31-21.24 75.75-20.84L75.75-20.84L75.75-20.84Q77.19-20.43 78.15-19.68L78.15-19.68L78.15-19.68Q79.11-18.93 79.60-17.91L79.60-17.91L79.60-17.91Q80.10-16.89 80.10-15.66L80.10-15.66L80.10-15.66Q80.10-13.47 78.80-12.13L78.80-12.13L78.80-12.13Q77.49-10.80 75.03-10.14L75.03-10.14L75.03-10.14Q75.63-9.87 76.14-9.53L76.14-9.53L76.14-9.53Q76.65-9.18 77.10-8.69L77.10-8.69L77.10-8.69Q77.55-8.19 77.98-7.50L77.98-7.50L77.98-7.50Q78.42-6.81 78.87-5.82L78.87-5.82L81.15-0.90zM72.39-18.84L72.39-18.84L72.39-18.84Q71.37-18.84 70.56-18.81L70.56-18.81L70.56-18.81Q69.75-18.78 69.09-18.72L69.09-18.72L69.09-11.67L72.39-11.67L72.39-11.67Q74.55-11.67 75.90-12.63L75.90-12.63L75.90-12.63Q77.25-13.59 77.25-15.39L77.25-15.39L77.25-15.39Q77.25-16.89 75.99-17.86L75.99-17.86L75.99-17.86Q74.73-18.84 72.39-18.84" fill="#353535" stroke="none" stroke-width="none" transform="translate(-39.22502279281616,8.846397542953492)" style="fill: rgb(212, 212, 212);"></path></g></g>
</g>
</g>
<style id="blink-85f4f835-5572-42f0-a664-fb94a61b4890" data-anikit="">@keyframes blink-85f4f835-5572-42f0-a664-fb94a61b4890 {
  0% { opacity: 1; }
  49.75% { opacity: 1; }
  50.25% { opacity: 0; }
  99.5% { opacity: 0; }
  100% { opacity: 1; }
}</style></svg>